<svg width="23" height="24" viewBox="0 0 23 24" fill="none" xmlns="http://www.w3.org/2000/svg">
<g clip-path="url(#clip0_1_43)">
<path d="M16.8741 -0.0991891V-0.1H16.7741H6.22588C2.73368 -0.1 -0.1 2.86313 -0.1 6.49657V17.5036C-0.1 21.1368 2.73368 24.1 6.22588 24.1H16.7743C20.2663 24.1 23.1 21.1368 23.1 17.5036V6.49657C23.1 2.89787 20.3202 -0.0432687 16.8741 -0.0991891ZM21.5516 17.5036C21.5516 20.2587 19.4044 22.493 16.7741 22.493H6.22588C3.59556 22.493 1.44836 20.2587 1.44836 17.5036V6.49657C1.44836 3.74129 3.59556 1.50698 6.22588 1.50698H16.7743C19.4044 1.50698 21.5516 3.74129 21.5516 6.49657V17.5036Z" fill="white" stroke="white" stroke-width="0.2"/>
<path d="M11.5 5.33774C7.97305 5.33774 5.11112 8.33035 5.11112 12C5.11112 15.6697 7.97305 18.6624 11.5 18.6624C15.0269 18.6624 17.8889 15.6697 17.8889 12C17.8889 8.33035 15.0269 5.33774 11.5 5.33774ZM11.5 17.0554C8.8351 17.0554 6.65948 14.7916 6.65948 12C6.65948 9.2087 8.83511 6.94472 11.5 6.94472C14.1651 6.94472 16.3405 9.2087 16.3405 12C16.3405 14.7916 14.1651 17.0554 11.5 17.0554Z" fill="white" stroke="white" stroke-width="0.2"/>
<path d="M17.9392 3.00718C16.8552 3.00718 15.9809 3.92594 15.9809 5.04626C15.9809 6.16676 16.8552 7.08553 17.9392 7.08553C19.0232 7.08553 19.8977 6.16677 19.8977 5.04626C19.8977 3.92574 19.0232 3.00718 17.9392 3.00718ZM17.9392 5.47836C17.7173 5.47836 17.5293 5.28842 17.5293 5.04626C17.5293 4.80394 17.7173 4.61416 17.9392 4.61416C18.1614 4.61416 18.3493 4.80396 18.3493 5.04626C18.3493 5.2884 18.1613 5.47836 17.9392 5.47836Z" fill="white" stroke="white" stroke-width="0.2"/>
</g>
<defs>
<clipPath id="clip0_1_43">
<rect width="23" height="24" fill="white"/>
</clipPath>
</defs>
</svg>
